<?xml version="1.0" encoding="UTF-8" standalone="no"?>
<!-- Created with Inkscape (http://www.inkscape.org/) -->

<svg
   xmlns:dc="http://purl.org/dc/elements/1.1/"
   xmlns:cc="http://creativecommons.org/ns#"
   xmlns:rdf="http://www.w3.org/1999/02/22-rdf-syntax-ns#"
   xmlns:svg="http://www.w3.org/2000/svg"
   xmlns="http://www.w3.org/2000/svg"
   xmlns:sodipodi="http://sodipodi.sourceforge.net/DTD/sodipodi-0.dtd"
   xmlns:inkscape="http://www.inkscape.org/namespaces/inkscape"
   id="svg3406"
   version="1.1"
   inkscape:version="0.91 r"
   width="48"
   height="48"
   viewBox="0 0 48 48"
   sodipodi:docname="exit.svg">
  <metadata
     id="metadata3412">
    <rdf:RDF>
      <cc:Work
         rdf:about="">
        <dc:format>image/svg+xml</dc:format>
        <dc:type
           rdf:resource="http://purl.org/dc/dcmitype/StillImage" />
        <dc:title />
      </cc:Work>
    </rdf:RDF>
  </metadata>
  <defs
     id="defs3410" />
  <sodipodi:namedview
     pagecolor="#ffffff"
     bordercolor="#666666"
     borderopacity="1"
     objecttolerance="10"
     gridtolerance="10"
     guidetolerance="10"
     inkscape:pageopacity="0"
     inkscape:pageshadow="2"
     inkscape:window-width="1366"
     inkscape:window-height="741"
     id="namedview3408"
     showgrid="false"
     inkscape:zoom="8"
     inkscape:cx="7.75"
     inkscape:cy="21.863807"
     inkscape:window-x="0"
     inkscape:window-y="0"
     inkscape:window-maximized="1"
     inkscape:current-layer="layer4" />
  <g
     inkscape:groupmode="layer"
     id="layer4"
     inkscape:label="Exit"
     style="display:inline">
    <path
       style="fill:#00c000;fill-opacity:1"
       d="m 11.137515,23.705977 -1.521395,-1.521982 2.741666,0 2.741684,0 0,-1.473646 0,-1.47366 -2.741684,0 -2.741666,0 1.521395,-1.521966 1.521399,-1.521967 -1.787237,0 -1.787235,0 -2.258982,2.258601 -2.2589902,2.258613 2.2586032,2.258981 2.258603,2.258987 1.787618,0 1.78762,0 -1.521399,-1.521961 z"
       id="path3808"
       inkscape:connector-curvature="0" />
    <path
       id="path4648"
       style="fill:#00c000;fill-opacity:1"
       d="m 21.795608,41.919485 c 0.04085,-0.06622 -0.506779,-0.707944 -1.217029,-1.426218 l -1.291345,-1.305943 2.253145,0 2.253148,0 1.311669,1.42621 1.311659,1.426217 8.032401,0 c 4.847335,0 8.012564,-0.05491 7.982368,-0.138644 -0.02757,-0.0762 -0.641171,-0.748241 -1.363666,-1.493319 l -1.313617,-1.354683 0,-2.856664 0,-2.856671 2.419941,-0.04132 2.419939,-0.04132 -1.536164,-1.989195 -1.536163,-1.989186 -0.88378,0 -0.883773,0 0,-11.409729 0,-11.409712 -11.409719,0 -11.409713,0 0,6.380434 0,6.380431 1.013362,-0.0024 1.013366,-0.0024 2.240523,-2.624503 2.240522,-2.62448 2.426766,0 c 1.334718,0 3.839474,-0.04064 5.566117,-0.09041 l 3.139365,-0.09039 2.335183,3.760927 c 0.461837,1.174748 0.387662,1.86774 -0.02086,2.144807 -0.408522,0.277067 -1.353502,0.323098 -2.014069,-0.703045 l -1.201021,-1.865763 -1.613875,-0.0014 c -1.244569,-0.0012 -1.613877,0.04402 -1.613877,0.198224 0,0.109958 0.478597,1.34287 1.063548,2.739838 0.584953,1.396965 1.174953,2.810158 1.311106,3.140443 0.191407,0.464314 0.265154,1.298535 0.325133,3.678128 l 0.07765,3.077627 3.903328,0.04421 3.903328,0.04432 0.825699,1.070685 c 0.45414,0.58888 0.879729,1.160066 0.945758,1.269316 0.09895,0.163593 -1.072439,0.198633 -6.640286,0.198633 l -6.760341,0 -0.04036,-3.299759 -0.04036,-3.299755 -2.843086,6.152191 -2.843085,6.152192 -2.301766,0 -2.301774,0 3.405878,-6.793117 c 1.873227,-3.736211 3.404987,-6.860745 3.403892,-6.943413 -10e-4,-0.08259 -0.426132,-1.467671 -0.944536,-3.077803 l -0.94256,-2.927482 -1.745248,1.839706 -1.745257,1.839717 -1.839065,-6.45e-4 -1.839066,-6.51e-4 0,8.407843 0,8.407832 1.448998,1.50061 1.449012,1.500593 1.019242,0 c 0.560589,0 1.052695,-0.05405 1.093581,-0.120266 z M 23.691735,12.976046 C 22.10741,12.288998 21.446018,10.472135 22.207566,8.8989912 22.97479,7.3141254 25.312442,6.8344323 26.630213,7.9914489 c 1.074498,0.9434244 1.391827,2.2802941 0.830149,3.4972801 -0.666851,1.444893 -2.341984,2.105995 -3.768627,1.487317 z"
       inkscape:connector-curvature="0" />
  </g>
</svg>
