<?xml version="1.0" encoding="UTF-8" standalone="no"?>
<!-- Created with Inkscape (http://www.inkscape.org/) -->

<svg
   xmlns:dc="http://purl.org/dc/elements/1.1/"
   xmlns:cc="http://creativecommons.org/ns#"
   xmlns:rdf="http://www.w3.org/1999/02/22-rdf-syntax-ns#"
   xmlns:svg="http://www.w3.org/2000/svg"
   xmlns="http://www.w3.org/2000/svg"
   xmlns:sodipodi="http://sodipodi.sourceforge.net/DTD/sodipodi-0.dtd"
   xmlns:inkscape="http://www.inkscape.org/namespaces/inkscape"
   id="svg3406"
   version="1.1"
   inkscape:version="0.48.4 r"
   width="48"
   height="48"
   viewBox="0 0 48 48"
   sodipodi:docname="todos.svg">
  <metadata
     id="metadata3412">
    <rdf:RDF>
      <cc:Work
         rdf:about="">
        <dc:format>image/svg+xml</dc:format>
        <dc:type
           rdf:resource="http://purl.org/dc/dcmitype/StillImage" />
        <dc:title></dc:title>
      </cc:Work>
    </rdf:RDF>
  </metadata>
  <defs
     id="defs3410" />
  <sodipodi:namedview
     pagecolor="#ffffff"
     bordercolor="#666666"
     borderopacity="1"
     objecttolerance="10"
     gridtolerance="10"
     guidetolerance="10"
     inkscape:pageopacity="0"
     inkscape:pageshadow="2"
     inkscape:window-width="1680"
     inkscape:window-height="987"
     id="namedview3408"
     showgrid="false"
     inkscape:zoom="16"
     inkscape:cx="0.325715"
     inkscape:cy="24.395508"
     inkscape:window-x="-4"
     inkscape:window-y="-4"
     inkscape:window-maximized="1"
     inkscape:current-layer="layer1" />
  <g
     inkscape:groupmode="layer"
     id="layer1"
     inkscape:label="Marco"
     transform="translate(0,27)"
     style="display:inline">
    <rect
       style="fill:none;stroke:#00c000;stroke-width:1.25;stroke-linecap:butt;stroke-linejoin:miter;stroke-miterlimit:4;stroke-opacity:1;stroke-dasharray:none"
       id="rect3417"
       width="42.75"
       height="42.75"
       x="2.625"
       y="-24.375"
       ry="4.3874979" />
  </g>
  <g
     inkscape:groupmode="layer"
     id="layer2"
     inkscape:label="Arco"
     style="display:none">
    <path
       style="fill:#00c000;fill-opacity:1"
       d="m 21.157278,44.402105 c -0.488678,-0.395371 -0.496315,-0.531563 -0.496315,-4.051559 0,-3.57291 3.11e-4,-3.575234 0.51875,-3.957889 1.158486,-0.855055 5.502115,-0.910833 6.759744,-0.0868 0.479055,0.313889 0.502756,0.431903 0.502756,2.503384 0,1.602703 0.06816,2.17305 0.259375,2.170477 0.557635,-0.0075 3.64399,-1.396087 4.824375,-2.170536 1.651131,-1.083303 4.169926,-3.622178 5.254091,-5.295974 1.058638,-1.634387 2.011272,-4.032771 2.456026,-6.183372 0.495927,-2.398048 0.298432,-6.228192 -0.440817,-8.549128 C 39.5217,14.782257 37.196241,11.683136 33.64739,9.2547855 32.316292,8.3439642 29.300431,6.9532077 28.656407,6.9532077 c -0.134278,0 -0.214194,0.8516122 -0.214194,2.2825 l 0,2.2825003 -3.9425,0 -3.9425,0 0,-3.5159293 c 0,-3.4181411 0.01394,-3.5321216 0.501053,-4.098125 l 0.501054,-0.582196 2.663322,0.030612 c 3.349198,0.038496 5.906975,0.6516612 8.888321,2.1307606 6.054524,3.003759 11.105276,9.1890997 12.034145,15.8674567 0.06836,0.4915 -0.0081,5.999724 -0.128127,8.043074 -1.657548,3.91835 -0.544655,1.394547 -1.905758,4.074389 -1.048676,2.064712 -1.41512,2.494666 -2.818187,4.330916 -0.684753,0.896164 -2.574611,2.754166 -3.540747,3.424301 -0.966136,0.670135 -2.28284,1.488547 -2.969458,1.865813 -0.686619,0.377267 -4.301493,1.544778 -4.301493,1.544778 -5.226632,-0.09714 -7.845082,0.15557 -8.32406,-0.231953 z m -18.030065,-13.3789 0,-1.245 17.11875,0 17.11875,0 0,1.245 0,1.245 -17.11875,0 -17.11875,0 z m 0,-6.082257 0,-2.554756 6.484375,-0.979217 6.484375,-0.979217 5.557289,0.0065 c 4.543915,0.0053 5.697965,0.06524 6.328751,0.328731 2.390124,0.998412 3.03654,3.678014 1.321702,5.478874 -1.153264,1.211113 -1.654597,1.279038 -8.934328,1.210478 -5.963605,-0.05616 -6.439561,-0.08784 -6.84569,-0.455645 -0.637376,-0.577228 -0.583838,-1.637428 0.110259,-2.183404 0.503794,-0.396284 0.820272,-0.430061 4.029649,-0.430061 2.936957,0 3.85902,-0.08132 5.882243,-0.51875 1.319629,-0.285313 2.431428,-0.51875 2.470662,-0.51875 0.03924,0 0.03023,-0.280125 -0.02002,-0.6225 -0.110909,-0.755665 -0.280169,-0.767785 -2.835001,-0.20301 -1.422305,0.314418 -2.636594,0.41078 -5.1875,0.411667 -1.831781,6.43e-4 -3.696653,0.102814 -4.14416,0.227062 -1.615905,0.448646 -2.51781,2.059672 -2.034563,3.634233 l 0.215616,0.702548 -4.4418284,0 -4.4418276,0 0,-2.554757 z m 30.39875,2.245463 c -1.92638,-0.686725 -2.822621,-2.690621 -2.01746,-4.510817 1.266609,-2.863381 5.376447,-2.605663 6.275015,0.39349 0.772378,2.577964 -1.745444,5.012856 -4.257555,4.117327 z"
       id="path4409"
       inkscape:connector-curvature="0"
       sodipodi:nodetypes="csssssssssssscccsscssscsszscccccccccccccccsssssssssssssscccccssss" />
  </g>
  <g
     inkscape:groupmode="layer"
     id="layer3"
     inkscape:label="Trebol"
     style="display:none"
     sodipodi:insensitive="true">
    <g
       id="g4459"
       transform="matrix(0.14516123,0,0,0.15625202,-26.806431,-42.780379)"
       style="fill:#00c000;fill-opacity:1">
      <circle
         transform="translate(-3.0824092,-0.75469998)"
         id="path2997"
         style="fill:#00c000;fill-opacity:1;stroke:#b8b8b8;stroke-width:1;stroke-linecap:round;stroke-miterlimit:4;stroke-opacity:1;stroke-dasharray:none;stroke-dashoffset:5"
         cx="353.27249"
         cy="421.83887"
         r="24.906038"
         d="m 378.17853,421.83887 c 0,13.75522 -11.15081,24.90604 -24.90604,24.90604 -13.75522,0 -24.90604,-11.15082 -24.90604,-24.90604 0,-13.75523 11.15082,-24.90604 24.90604,-24.90604 13.75523,0 24.90604,11.15081 24.90604,24.90604 z"
         sodipodi:cx="353.27249"
         sodipodi:cy="421.83887"
         sodipodi:rx="24.906038"
         sodipodi:ry="24.906038" />
      <path
         sodipodi:nodetypes="ccsssssccccccccsssccsssssccssscccccssccsccccssccccssscccsssssssscssssssssssssccsssssssssssccc"
         inkscape:connector-curvature="0"
         id="path2987"
         d="m 289.2812,312.71875 c -0.52596,-0.0865 -1.08968,0.0543 -1.78125,0.3125 -0.69157,0.25817 -1.49494,0.63943 -2.40625,1.15625 -1.82262,1.03363 -4.06023,2.55261 -6.53125,4.40625 -4.94204,3.70728 -10.81362,8.75291 -15.96875,13.9375 -14.35837,14.44041 -24.41145,31.01277 -30.46875,50.1875 -2.8204,8.92816 -5.625,25.21751 -5.625,32.78125 l 0,4.5 0,0.5 0.5,0 42.9375,0 42.9375,0 0.4375,0 0.0625,-0.4375 0.6875,-4.75 c 1.55496,-10.67718 8.46712,-22.01517 15.5625,-25.8125 0.7678,-0.41091 1.45207,-0.9532 1.96875,-1.5 0.51668,-0.5468 0.90625,-1.082 0.90625,-1.71875 0,-0.23989 -0.0712,-0.37998 -0.15625,-0.625 -0.0851,-0.24502 -0.19199,-0.5579 -0.34375,-0.90625 -0.30351,-0.69671 -0.74823,-1.60136 -1.28125,-2.65625 -1.06603,-2.10979 -2.51188,-4.80946 -4.125,-7.625 -15.05225,-26.27228 -23.87977,-41.59133 -29.15625,-50.375 -2.63824,-4.39183 -4.3899,-7.14757 -5.59375,-8.84375 -0.60192,-0.84809 -1.08017,-1.41386 -1.46875,-1.8125 -0.38858,-0.39864 -0.69764,-0.65357 -1.09375,-0.71875 z m 122.5625,0.1875 c -1.29988,-0.0311 -2.38841,0.6199 -3.375,1.78125 -0.98659,1.16135 -1.94969,2.84223 -3.1875,5.0625 -4.74922,8.51871 -13.92759,24.52644 -18.65625,32.5 -2.61309,4.40625 -8.06298,13.77988 -12.09375,20.84375 l -7.3125,12.84375 -0.21875,0.375 0.34375,0.25 3.4375,2.625 c 8.5437,6.53252 13.91746,15.15881 15.25,24.375 0.20005,1.38354 0.44465,2.72742 0.65625,3.78125 0.1058,0.52692 0.18943,0.9865 0.28125,1.34375 0.0918,0.35725 0.14852,0.58185 0.28125,0.8125 0.0941,0.16346 0.19458,0.19134 0.25,0.21875 0.0554,0.0274 0.0851,0.051 0.125,0.0625 0.0797,0.023 0.15846,0.0169 0.25,0.0312 0.18308,0.0288 0.41429,0.0689 0.71875,0.0937 0.60893,0.0498 1.48676,0.08 2.59375,0.125 2.21398,0.0899 5.36248,0.18199 9.25,0.25 7.77503,0.13601 18.45132,0.21875 30.125,0.21875 l 42.4375,0 0.5,0 0,-0.5 0,-6.75 c -0.003,-13.62103 -4.80578,-32.67935 -11.90625,-47.34375 -9.10187,-18.79783 -20.45168,-32.52106 -37.9375,-45.875 -3.03812,-2.32022 -5.35359,-4.06403 -7.21875,-5.25 -1.86516,-1.18597 -3.29387,-1.84388 -4.59375,-1.875 z m -81.31245,137.9375 c -0.3358,0.0426 -0.63417,0.15772 -0.875,0.40625 -0.16857,0.17396 -0.25602,0.35614 -0.46875,0.6875 -0.21273,0.33136 -0.50086,0.78072 -0.84375,1.34375 -0.68578,1.12607 -1.60432,2.69913 -2.71875,4.59375 -2.22886,3.78924 -5.20107,8.87342 -8.34375,14.375 -6.28292,10.99892 -15.5237,27.13956 -20.5625,35.84375 -2.52315,4.35858 -4.77184,8.40596 -6.34375,11.4375 -0.78595,1.51577 -1.40201,2.76684 -1.8125,3.6875 -0.20525,0.46033 -0.37048,0.83037 -0.46875,1.125 -0.0491,0.14732 -0.0724,0.28064 -0.0937,0.40625 -0.0213,0.12561 -0.10147,0.23469 0.0625,0.5 0.4025,0.65126 1.15826,1.27519 2.1875,1.96875 1.02924,0.69356 2.35567,1.44067 3.90625,2.21875 3.10117,1.55615 7.11192,3.25293 11.5,4.875 8.77617,3.24415 19.018,6.20614 26.28125,7.25 4.10876,0.5905 13.45642,0.64354 22.71875,0.34375 9.26233,-0.29979 18.34049,-0.93243 21.96875,-1.78125 7.11913,-1.6655 15.99402,-4.75235 23.125,-7.78125 3.56549,-1.51445 6.68521,-3.01387 8.9375,-4.3125 1.12614,-0.64932 2.03752,-1.26736 2.6875,-1.8125 0.64998,-0.54514 1.125,-0.98927 1.125,-1.65625 0,-0.1779 -0.0367,-0.20933 -0.0625,-0.28125 -0.0258,-0.0719 -0.0534,-0.15887 -0.0937,-0.25 -0.0807,-0.18227 -0.19677,-0.39453 -0.34375,-0.6875 -0.29396,-0.58594 -0.70656,-1.42684 -1.25,-2.4375 -1.08689,-2.02132 -2.66298,-4.81118 -4.53125,-8.15625 -3.73654,-6.69014 -8.72184,-15.50642 -13.78125,-24.34375 -5.05941,-8.83733 -10.18396,-17.69379 -14.15625,-24.46875 -1.98614,-3.38748 -3.67386,-6.25933 -4.9375,-8.34375 -0.63182,-1.04221 -1.16563,-1.87895 -1.5625,-2.5 -0.39687,-0.62105 -0.62713,-0.99053 -0.84375,-1.21875 -0.56835,-0.5988 -1.35499,-0.90131 -2.375,-0.75 -1.02001,0.15131 -2.30729,0.67355 -4.3125,1.5625 -8.92835,3.95813 -20.00308,3.62552 -29.84375,-0.90625 -0.99858,-0.45986 -1.94585,-0.75321 -2.75,-0.875 -0.40208,-0.0609 -0.7892,-0.10512 -1.125,-0.0625 z"
         style="font-size:medium;font-style:normal;font-variant:normal;font-weight:normal;font-stretch:normal;text-indent:0;text-align:start;text-decoration:none;line-height:normal;letter-spacing:normal;word-spacing:normal;text-transform:none;direction:ltr;block-progression:tb;writing-mode:lr-tb;text-anchor:start;baseline-shift:baseline;color:#000000;fill:#00c000;fill-opacity:1;fill-rule:nonzero;stroke:#b8b8b8;stroke-width:1;stroke-opacity:1;marker:none;visibility:visible;display:inline;overflow:visible;enable-background:accumulate;font-family:Sans;-inkscape-font-specification:Sans" />
    </g>
  </g>
  <g
     inkscape:groupmode="layer"
     id="layer4"
     inkscape:label="Exit"
     style="display:inline">
    <path
       style="fill:#00c000;fill-opacity:1"
       d="m 9.137515,23.705977 -1.521395,-1.521982 2.741666,0 2.741684,0 0,-1.473646 0,-1.47366 -2.741684,0 -2.741666,0 1.521395,-1.521966 1.521399,-1.521967 -1.787237,0 -1.787235,0 -2.258982,2.258601 -2.2589902,2.258613 2.2586032,2.258981 2.258603,2.258987 1.787618,0 1.78762,0 -1.521399,-1.521961 z"
       id="path3808"
       inkscape:connector-curvature="0" />
    <path
       id="path4648"
       style="fill:#00c000;fill-opacity:1"
       d="m 23.795608,41.919485 c 0.04085,-0.06622 -0.506779,-0.707944 -1.217029,-1.426218 l -1.291345,-1.305943 2.253145,0 2.253148,0 1.311669,1.42621 1.311659,1.426217 8.032401,0 c 4.847335,0 8.012564,-0.05491 7.982368,-0.138644 -0.02757,-0.0762 -0.641171,-0.748241 -1.363666,-1.493319 l -1.313617,-1.354683 0,-2.856664 0,-2.856671 2.419941,-0.04132 2.419939,-0.04132 -1.536164,-1.989195 -1.536163,-1.989186 -0.88378,0 -0.883773,0 0,-11.409729 0,-11.409712 -11.409719,0 -11.409713,0 0,6.380434 0,6.380431 1.013362,-0.0024 1.013366,-0.0024 2.240523,-2.624503 2.240522,-2.62448 2.426766,0 c 1.334718,0 3.839474,-0.04064 5.566117,-0.09041 l 3.139365,-0.09039 2.335183,3.760927 c 0.461837,1.174748 0.387662,1.86774 -0.02086,2.144807 -0.408522,0.277067 -1.353502,0.323098 -2.014069,-0.703045 l -1.201021,-1.865763 -1.613875,-0.0014 c -1.244569,-0.0012 -1.613877,0.04402 -1.613877,0.198224 0,0.109958 0.478597,1.34287 1.063548,2.739838 0.584953,1.396965 1.174953,2.810158 1.311106,3.140443 0.191407,0.464314 0.265154,1.298535 0.325133,3.678128 l 0.07765,3.077627 3.903328,0.04421 3.903328,0.04432 0.825699,1.070685 c 0.45414,0.58888 0.879729,1.160066 0.945758,1.269316 0.09895,0.163593 -1.072439,0.198633 -6.640286,0.198633 l -6.760341,0 -0.04036,-3.299759 -0.04036,-3.299755 -2.843086,6.152191 -2.843085,6.152192 -2.301766,0 -2.301774,0 3.405878,-6.793117 c 1.873227,-3.736211 3.404987,-6.860745 3.403892,-6.943413 -10e-4,-0.08259 -0.426132,-1.467671 -0.944536,-3.077803 l -0.94256,-2.927482 -1.745248,1.839706 -1.745257,1.839717 -1.839065,-6.45e-4 -1.839066,-6.51e-4 0,8.407843 0,8.407832 1.448998,1.50061 1.449012,1.500593 1.019242,0 c 0.560589,0 1.052695,-0.05405 1.093581,-0.120266 z M 25.691735,12.976046 C 24.10741,12.288998 23.446018,10.472135 24.207566,8.8989912 24.97479,7.3141254 27.312442,6.8344323 28.630213,7.9914489 c 1.074498,0.9434244 1.391827,2.2802941 0.830149,3.4972801 -0.666851,1.444893 -2.341984,2.105995 -3.768627,1.487317 z"
       inkscape:connector-curvature="0" />
  </g>
  <g
     inkscape:groupmode="layer"
     id="layer5"
     inkscape:label="Calendario"
     style="display:none">
    <path
       style="fill:#00c000;fill-opacity:1;stroke:none"
       d="M 9.3164062,9 C 7.6575562,9 6.5236827,9.4372569 5.4804688,10.480469 4.7981287,11.162809 4.3895119,11.877193 4.1542969,12.796875 4.0039709,13.384643 4,13.717724 4,26.5 c 0,12.782276 0.00397,13.115357 0.1542969,13.703125 0.456246,1.783907 1.8370032,3.173289 3.6132812,3.638672 0.5506,0.144305 1.0772719,0.150097 16.2011719,0.154297 15.30973,0.0042 15.644425,4.94e-4 16.234375,-0.150391 1.79924,-0.460167 3.182408,-1.843344 3.642578,-3.642578 C 43.995763,39.615357 44,39.282276 44,26.5 44,13.717724 43.996023,13.384643 43.845703,12.796875 43.610483,11.877193 43.201871,11.162809 42.519531,10.480469 41.476321,9.4372569 40.342454,9 38.683594,9 l -0.917969,0 -0.03125,0.9179688 C 37.695735,11.043857 37.538526,11.464564 36.941406,12.029297 36.275906,12.6587 36.05,12.710938 34,12.710938 c -2.05001,0 -2.275906,-0.05224 -2.941406,-0.681641 -0.59712,-0.564733 -0.754369,-0.98544 -0.792969,-2.1113282 L 30.234375,9 24,9 17.765625,9 17.734375,9.9179688 C 17.695735,11.043857 17.538526,11.464564 16.941406,12.029297 16.275906,12.6587 16.05,12.710938 14,12.710938 c -2.05001,0 -2.275906,-0.05224 -2.941406,-0.681641 -0.59712,-0.564733 -0.754369,-0.98544 -0.792969,-2.1113282 L 10.234375,9 9.3164062,9 z m -0.9023437,7.539062 15.5859375,0 15.585938,0 0.40625,0.183594 c 0.51362,0.232275 1.121149,0.867507 1.318359,1.378906 0.14556,0.37852 0.150391,0.71032 0.150391,10.898438 -10e-7,10.188118 -0.0044,10.519917 -0.150391,10.898438 -0.19721,0.5114 -0.80474,1.146631 -1.318359,1.378906 l -0.40625,0.183594 -15.46875,0.01562 C 7.9266475,41.491949 8.4237594,41.499948 7.7871094,41.167969 7.4165494,40.974741 6.8541631,40.323576 6.6894531,39.896484 6.5446531,39.520552 6.5390625,39.169841 6.5390625,29 c 0,-10.188118 0.00441,-10.519918 0.1503906,-10.898438 0.19721,-0.5114 0.8047394,-1.146631 1.3183594,-1.378906 l 0.40625,-0.183594 z"
       id="path4962"
       inkscape:connector-curvature="0" />
    <path
       style="fill:#00c000;fill-opacity:1;stroke:none"
       d="M 10.23831,31.708585 C 9.92392,31.568632 9.5959,31.170161 9.53719,30.856863 c -0.0259,-0.138384 -0.0361,-0.925905 -0.0226,-1.750047 0.0268,-1.639834 0.0439,-1.703371 0.56241,-2.090482 0.20251,-0.151191 0.32054,-0.161078 1.92304,-0.161078 1.6025,0 1.72053,0.0099 1.92304,0.161078 0.53246,0.397539 0.5379,0.420794 0.5379,2.29986 0,1.602504 -0.01,1.720534 -0.16108,1.923037 -0.39206,0.525118 -0.43554,0.536083 -2.20769,0.556655 -1.22508,0.01422 -1.6732,-0.0069 -1.85386,-0.0873 z"
       id="path4958"
       inkscape:connector-curvature="0" />
    <path
       style="fill:#00c000;fill-opacity:1;stroke:none"
       d="m 18.23831,31.708585 c -0.31439,-0.139953 -0.64241,-0.538424 -0.70112,-0.851722 -0.0259,-0.138384 -0.0361,-0.925905 -0.0226,-1.750047 0.0268,-1.639834 0.0439,-1.703371 0.56241,-2.090482 0.20251,-0.151191 0.32054,-0.161078 1.92304,-0.161078 1.6025,0 1.72053,0.0099 1.92304,0.161078 0.53246,0.397539 0.5379,0.420794 0.5379,2.29986 0,1.602504 -0.01,1.720534 -0.16108,1.923037 -0.39206,0.525118 -0.43554,0.536083 -2.20769,0.556655 -1.22508,0.01422 -1.6732,-0.0069 -1.85386,-0.0873 z"
       id="path4956"
       inkscape:connector-curvature="0" />
    <path
       style="fill:#00c000;fill-opacity:1;stroke:none"
       d="m 26.23831,31.708585 c -0.31439,-0.139953 -0.64241,-0.538424 -0.70112,-0.851722 -0.0259,-0.138384 -0.0361,-0.925905 -0.0226,-1.750047 0.0268,-1.639834 0.0439,-1.703371 0.56241,-2.090482 0.20251,-0.151191 0.32054,-0.161078 1.92304,-0.161078 1.6025,0 1.72053,0.0099 1.92304,0.161078 0.53246,0.397539 0.5379,0.420794 0.5379,2.29986 0,1.602504 -0.01,1.720534 -0.16108,1.923037 -0.39206,0.525118 -0.43554,0.536083 -2.20769,0.556655 -1.22508,0.01422 -1.6732,-0.0069 -1.85386,-0.0873 z"
       id="path4954"
       inkscape:connector-curvature="0" />
    <path
       style="fill:#00c000;fill-opacity:1;stroke:none"
       d="M 10.23831,24.408585 C 9.92392,24.268632 9.5959,23.870161 9.53719,23.556863 c -0.0259,-0.138384 -0.0361,-0.925905 -0.0226,-1.750047 0.0268,-1.639834 0.0439,-1.703371 0.56241,-2.090482 0.20251,-0.151191 0.32054,-0.161078 1.92304,-0.161078 1.6025,0 1.72053,0.0099 1.92304,0.161078 0.53246,0.397539 0.5379,0.420794 0.5379,2.29986 0,1.602504 -0.01,1.720534 -0.16108,1.923037 -0.39206,0.525118 -0.43554,0.536083 -2.20769,0.556655 -1.22508,0.01422 -1.6732,-0.0069 -1.85386,-0.0873 z"
       id="path4952"
       inkscape:connector-curvature="0" />
    <path
       style="fill:#00c000;fill-opacity:1;stroke:none"
       d="m 18.23831,24.408585 c -0.31439,-0.139953 -0.64241,-0.538424 -0.70112,-0.851722 -0.0259,-0.138384 -0.0361,-0.925905 -0.0226,-1.750047 0.0268,-1.639834 0.0439,-1.703371 0.56241,-2.090482 0.20251,-0.151191 0.32054,-0.161078 1.92304,-0.161078 1.6025,0 1.72053,0.0099 1.92304,0.161078 0.53246,0.397539 0.5379,0.420794 0.5379,2.29986 0,1.602504 -0.01,1.720534 -0.16108,1.923037 -0.39206,0.525118 -0.43554,0.536083 -2.20769,0.556655 -1.22508,0.01422 -1.6732,-0.0069 -1.85386,-0.0873 z"
       id="path4950"
       inkscape:connector-curvature="0" />
    <path
       style="fill:#00c000;fill-opacity:1;stroke:none"
       d="m 26.23831,24.408585 c -0.31439,-0.139953 -0.64241,-0.538424 -0.70112,-0.851722 -0.0259,-0.138384 -0.0361,-0.925905 -0.0226,-1.750047 0.0268,-1.639834 0.0439,-1.703371 0.56241,-2.090482 0.20251,-0.151191 0.32054,-0.161078 1.92304,-0.161078 1.6025,0 1.72053,0.0099 1.92304,0.161078 0.53246,0.397539 0.5379,0.420794 0.5379,2.29986 0,1.602504 -0.01,1.720534 -0.16108,1.923037 -0.39206,0.525118 -0.43554,0.536083 -2.20769,0.556655 -1.22508,0.01422 -1.6732,-0.0069 -1.85386,-0.0873 z"
       id="path4948"
       inkscape:connector-curvature="0" />
    <path
       style="fill:#00c000;fill-opacity:1;stroke:none"
       d="M 12.23831,11.392391 C 11.92332,11.252172 11.59556,10.853433 11.5382,10.540669 11.5128,10.402285 11.5026,9.0523273 11.5156,7.5407621 11.5381,4.9061994 11.5458,4.7835382 11.70018,4.5768393 12.09783,4.0444802 12.121,4.0390625 14,4.0390625 c 1.87907,0 1.90232,0.00544 2.29986,0.5378999 0.15605,0.2090117 0.16108,0.308047 0.16108,3.1730376 0,2.864991 -0.005,2.964026 -0.16108,3.173038 -0.39206,0.525117 -0.43554,0.536082 -2.20769,0.556654 -1.22508,0.01422 -1.6732,-0.0069 -1.85386,-0.0873 z"
       id="path4946"
       inkscape:connector-curvature="0" />
    <path
       style="fill:#00c000;fill-opacity:1;stroke:none"
       d="M 32.23831,11.392391 C 31.92332,11.252172 31.59556,10.853433 31.5382,10.540669 31.5128,10.402285 31.5026,9.0523273 31.5156,7.5407621 31.5381,4.9061994 31.5458,4.7835382 31.70018,4.5768393 32.09783,4.0444802 32.121,4.0390625 34,4.0390625 c 1.87907,0 1.90232,0.00544 2.29986,0.5378999 0.15605,0.2090117 0.16108,0.308047 0.16108,3.1730376 0,2.864991 -0.005,2.964026 -0.16108,3.173038 -0.39206,0.525117 -0.43554,0.536082 -2.20769,0.556654 -1.22508,0.01422 -1.6732,-0.0069 -1.85386,-0.0873 z"
       id="path4942"
       inkscape:connector-curvature="0" />
    <path
       style="fill:#00c000;fill-opacity:1;stroke:none"
       d="m 33.664304,24.408585 c -0.31439,-0.139953 -0.64241,-0.538424 -0.70112,-0.851722 -0.0259,-0.138384 -0.0361,-0.925905 -0.0226,-1.750047 0.0268,-1.639834 0.0439,-1.703371 0.56241,-2.090482 0.20251,-0.151191 0.32054,-0.161078 1.92304,-0.161078 1.6025,0 1.72053,0.0099 1.92304,0.161078 0.53246,0.397539 0.5379,0.420794 0.5379,2.29986 0,1.602504 -0.01,1.720534 -0.16108,1.923037 -0.39206,0.525118 -0.43554,0.536083 -2.20769,0.556655 -1.22508,0.01422 -1.6732,-0.0069 -1.85386,-0.0873 z"
       id="path4948-4"
       inkscape:connector-curvature="0" />
    <path
       style="fill:#00c000;fill-opacity:1;stroke:none"
       d="m 33.664687,31.708585 c -0.31439,-0.139953 -0.64241,-0.538424 -0.70112,-0.851722 -0.0259,-0.138384 -0.0361,-0.925905 -0.0226,-1.750047 0.0268,-1.639834 0.0439,-1.703371 0.56241,-2.090482 0.20251,-0.151191 0.32054,-0.161078 1.92304,-0.161078 1.6025,0 1.72053,0.0099 1.92304,0.161078 0.53246,0.397539 0.5379,0.420794 0.5379,2.29986 0,1.602504 -0.01,1.720534 -0.16108,1.923037 -0.39206,0.525118 -0.43554,0.536083 -2.20769,0.556655 -1.22508,0.01422 -1.6732,-0.0069 -1.85386,-0.0873 z"
       id="path4948-3"
       inkscape:connector-curvature="0" />
    <path
       style="fill:#00c000;fill-opacity:1;stroke:none"
       d="m 10.238687,39.031893 c -0.31439,-0.139953 -0.64241,-0.538424 -0.70112,-0.851722 -0.0259,-0.138384 -0.0361,-0.925905 -0.0226,-1.750047 0.0268,-1.639834 0.0439,-1.703371 0.56241,-2.090482 0.20251,-0.151191 0.32054,-0.161078 1.92304,-0.161078 1.6025,0 1.72053,0.0099 1.92304,0.161078 0.53246,0.397539 0.5379,0.420794 0.5379,2.29986 0,1.602504 -0.01,1.720534 -0.16108,1.923037 -0.39206,0.525118 -0.43554,0.536083 -2.20769,0.556655 -1.22508,0.01422 -1.6732,-0.0069 -1.85386,-0.0873 z"
       id="path4958-2"
       inkscape:connector-curvature="0" />
    <path
       style="fill:#00c000;fill-opacity:1;stroke:none"
       d="m 18.238687,39.031893 c -0.31439,-0.139953 -0.64241,-0.538424 -0.70112,-0.851722 -0.0259,-0.138384 -0.0361,-0.925905 -0.0226,-1.750047 0.0268,-1.639834 0.0439,-1.703371 0.56241,-2.090482 0.20251,-0.151191 0.32054,-0.161078 1.92304,-0.161078 1.6025,0 1.72053,0.0099 1.92304,0.161078 0.53246,0.397539 0.5379,0.420794 0.5379,2.29986 0,1.602504 -0.01,1.720534 -0.16108,1.923037 -0.39206,0.525118 -0.43554,0.536083 -2.20769,0.556655 -1.22508,0.01422 -1.6732,-0.0069 -1.85386,-0.0873 z"
       id="path4956-9"
       inkscape:connector-curvature="0" />
    <path
       style="fill:#00c000;fill-opacity:1;stroke:none"
       d="m 26.238687,39.031893 c -0.31439,-0.139953 -0.64241,-0.538424 -0.70112,-0.851722 -0.0259,-0.138384 -0.0361,-0.925905 -0.0226,-1.750047 0.0268,-1.639834 0.0439,-1.703371 0.56241,-2.090482 0.20251,-0.151191 0.32054,-0.161078 1.92304,-0.161078 1.6025,0 1.72053,0.0099 1.92304,0.161078 0.53246,0.397539 0.5379,0.420794 0.5379,2.29986 0,1.602504 -0.01,1.720534 -0.16108,1.923037 -0.39206,0.525118 -0.43554,0.536083 -2.20769,0.556655 -1.22508,0.01422 -1.6732,-0.0069 -1.85386,-0.0873 z"
       id="path4954-8"
       inkscape:connector-curvature="0" />
    <path
       style="fill:#00c000;fill-opacity:1;stroke:none"
       d="m 33.665064,39.031893 c -0.31439,-0.139953 -0.64241,-0.538424 -0.70112,-0.851722 -0.0259,-0.138384 -0.0361,-0.925905 -0.0226,-1.750047 0.0268,-1.639834 0.0439,-1.703371 0.56241,-2.090482 0.20251,-0.151191 0.32054,-0.161078 1.92304,-0.161078 1.6025,0 1.72053,0.0099 1.92304,0.161078 0.53246,0.397539 0.5379,0.420794 0.5379,2.29986 0,1.602504 -0.01,1.720534 -0.16108,1.923037 -0.39206,0.525118 -0.43554,0.536083 -2.20769,0.556655 -1.22508,0.01422 -1.6732,-0.0069 -1.85386,-0.0873 z"
       id="path4948-3-1"
       inkscape:connector-curvature="0" />
  </g>
  <g
     inkscape:groupmode="layer"
     id="layer6"
     inkscape:label="Baja"
     style="display:none">
    <path
       style="fill:#00c000;fill-opacity:1;fill-rule:evenodd;stroke:#ffffff;stroke-width:1.16477287;stroke-linecap:butt;stroke-linejoin:miter;stroke-miterlimit:4;stroke-opacity:1;stroke-dasharray:none;display:inline"
       d="m 8.2207031,3.7324219 c -2.2649461,0 -4.0878906,1.8229426 -4.0878906,4.0878906 l 0,31.6582035 c 0,2.264953 1.8229445,4.089843 4.0878906,4.089843 l 31.6582029,0 c 2.264949,0 4.087891,-1.82489 4.087891,-4.089843 l 0,-31.6582035 c 0,-2.264948 -1.822942,-4.0878906 -4.087891,-4.0878906 l -31.6582029,0 z m 12.7265629,0.5898437 2.488281,0.027344 c 3.129104,0.035964 5.519266,0.610289 8.304687,1.9921875 5.656646,2.8063676 10.37436,8.5847369 11.242188,14.8242189 0.06388,0.459202 -0.0068,5.604603 -0.119141,7.513672 -1.548623,3.660853 -0.509598,1.302907 -1.78125,3.80664 -0.979767,1.929026 -1.321944,2.331294 -2.632812,4.046875 -0.63975,0.837271 -2.405949,2.573123 -3.308594,3.199219 -0.902646,0.626096 -2.131941,1.391667 -2.773437,1.74414 -0.641497,0.352475 -4.019532,1.44336 -4.019532,1.44336 -4.883161,-0.09078 -7.32789,0.145257 -7.77539,-0.216797 -0.45656,-0.369392 -0.464844,-0.498438 -0.464844,-3.787109 0,-3.338114 2e-6,-3.339758 0.484375,-3.697266 1.082352,-0.798864 5.141428,-0.84996 6.316406,-0.08008 0.447577,0.293261 0.46875,0.402534 0.46875,2.33789 0,1.497375 0.06353,2.029747 0.242188,2.027344 0.520988,-0.0068 3.404995,-1.30379 4.507812,-2.027344 1.542623,-1.01211 3.895288,-3.383465 4.908203,-4.947265 0.989072,-1.52698 1.879398,-3.768072 2.294922,-5.777344 0.463334,-2.240459 0.278555,-5.819872 -0.412109,-7.988281 C 37.728095,15.027975 35.55587,12.133997 32.240234,9.8652326 30.996612,9.0142656 28.179827,7.714842 27.578125,7.714842 c -0.12545,0 -0.201172,0.7959584 -0.201172,2.1328124 l 0,2.1308596 -3.683594,0 -3.683593,0 0,-3.2832033 c 0,-3.1935136 0.01364,-3.3012702 0.46875,-3.8300781 l 0.46875,-0.5429688 z"
       id="path4727"
       inkscape:connector-curvature="0" />
  </g>
  <g
     inkscape:groupmode="layer"
     id="layer7"
     inkscape:label="Censo"
     style="display:none">
    <path
       style="fill:#00c000;fill-opacity:1;stroke:#ffffff;stroke-width:0.8789863;stroke-opacity:1;display:inline"
       d="m 4.2511828,43.208441 c -0.429541,-0.347521 -0.436254,-0.467232 -0.436254,-3.561264 0,-3.140533 2.73e-4,-3.142572 0.455973,-3.478925 1.018294,-0.75158 4.836282,-0.800607 5.9417192,-0.07626 0.421084,0.275898 0.441916,0.379633 0.441916,2.200439 0,1.408753 0.05989,1.91008 0.227992,1.907817 0.490151,-0.0066 3.203012,-1.227139 4.240553,-1.907871 1.451324,-0.952203 3.665307,-3.18384 4.61827,-4.655085 0.930535,-1.436606 1.767884,-3.544754 2.158818,-5.435098 0.435914,-2.107854 0.262322,-5.474497 -0.387472,-7.514567 -1.119447,-3.514583 -3.163495,-6.238667 -6.282878,-8.373152 -1.170025,-0.8006 -3.820917,-2.023058 -4.387013,-2.023058 -0.118024,0 -0.18827,0.748553 -0.18827,2.006287 l 0,2.006288 -3.4654012,0 -3.465402,0 0,-3.090456 c 0,-3.0044957 0.01226,-3.1046847 0.440418,-3.6021957 l 0.44042,-0.511751 2.341022,0.02691 c 2.9438992,0.03384 5.1921532,0.5728 7.8127142,1.872909 5.32184,2.6402627 9.761383,8.0770887 10.577842,13.9472727 0.06008,0.432023 -0.0072,5.273675 -0.112621,7.069749 -1.456963,3.444178 -0.478746,1.225788 -1.675137,3.58133 -0.92177,1.814854 -1.243868,2.192776 -2.477147,3.806818 -0.601888,0.787717 -2.263046,2.420875 -3.112266,3.009912 -0.849224,0.589039 -2.006586,1.308415 -2.61011,1.640023 -0.603534,0.331616 -3.780949,1.357846 -3.780949,1.357846 -4.5941422,-0.08537 -6.8957222,0.136727 -7.3167372,-0.203894 z"
       id="path5047-9-9-5"
       inkscape:connector-curvature="0" />
    <path
       style="fill:#00c000;fill-opacity:1;stroke:#ffffff;stroke-width:0.8789863;stroke-opacity:1;display:inline"
       d="m 11.604893,38.215893 c -0.429541,-0.347521 -0.436254,-0.467232 -0.436254,-3.561264 0,-3.140533 2.73e-4,-3.142572 0.455973,-3.478925 1.018294,-0.75158 4.836282,-0.800607 5.941719,-0.07626 0.421084,0.275898 0.441916,0.379633 0.441916,2.200439 0,1.408753 0.05989,1.91008 0.227992,1.907817 0.490151,-0.0066 3.203013,-1.227139 4.240554,-1.907871 1.451324,-0.952203 3.665307,-3.18384 4.61827,-4.655085 0.930535,-1.436606 1.767884,-3.544754 2.158818,-5.435098 0.435914,-2.107854 0.262322,-5.474497 -0.387472,-7.514567 -1.119447,-3.514583 -3.163495,-6.238668 -6.282878,-8.3731524 -1.170025,-0.8006 -3.820918,-2.023058 -4.387014,-2.023058 -0.118024,0 -0.18827,0.748553 -0.18827,2.006287 l 0,2.0062874 -3.465401,0 -3.465402,0 0,-3.0904554 c 0,-3.004496 0.01226,-3.1046851 0.440418,-3.6021961 l 0.44042,-0.5117513 2.341022,0.026909 c 2.943899,0.03384 5.192153,0.5728003 7.812715,1.8729094 5.32184,2.640263 9.761383,8.0770894 10.577842,13.9472734 0.06008,0.432023 -0.0072,5.273675 -0.112621,7.069749 -1.456963,3.444178 -0.478746,1.225788 -1.675137,3.58133 -0.92177,1.814854 -1.243868,2.192776 -2.477147,3.806818 -0.601888,0.787717 -2.263046,2.420875 -3.112266,3.009912 -0.849224,0.589039 -2.006586,1.308415 -2.61011,1.640023 -0.603534,0.331616 -3.78095,1.357846 -3.78095,1.357846 -4.594142,-0.08537 -6.895722,0.136727 -7.316737,-0.203894 z"
       id="path5047-9"
       inkscape:connector-curvature="0" />
    <path
       style="fill:#00c000;fill-opacity:1;stroke:none;display:inline"
       d="m 27.14984,41.425242 c -0.162007,-0.07213 -0.331036,-0.277454 -0.361293,-0.438897 -0.01334,-0.07131 -0.01859,-0.477129 -0.01163,-0.901816 0.01382,-0.84502 0.02262,-0.877761 0.289816,-1.077243 0.104358,-0.0779 0.165177,-0.083 0.990958,-0.083 0.825785,0 0.886606,0.0051 0.990959,0.083 0.274384,0.204855 0.277185,0.216839 0.277185,1.185138 0,0.825783 -0.0052,0.886606 -0.083,0.990958 -0.202034,0.270596 -0.224441,0.276247 -1.137643,0.286849 -0.631296,0.0073 -0.862214,-0.0037 -0.95531,-0.04497 z"
       id="path4948-3-1-6"
       inkscape:connector-curvature="0" />
    <path
       style="fill:#00c000;fill-opacity:1;stroke:none;display:inline"
       d="m 31.9936,41.424914 c -0.162007,-0.07213 -0.331036,-0.277454 -0.361293,-0.438897 -0.01334,-0.07131 -0.01859,-0.477129 -0.01163,-0.901816 0.01382,-0.84502 0.02262,-0.877761 0.289816,-1.077243 0.104358,-0.0779 0.165177,-0.083 0.990958,-0.083 0.825785,0 0.886606,0.0051 0.990959,0.083 0.274384,0.204855 0.277185,0.216839 0.277185,1.185138 0,0.825783 -0.0052,0.886606 -0.083,0.990958 -0.202034,0.270596 -0.224441,0.276247 -1.137643,0.286849 -0.631296,0.0073 -0.862214,-0.0037 -0.95531,-0.04497 z"
       id="path4948-3-1-6-5"
       inkscape:connector-curvature="0" />
    <path
       style="fill:#00c000;fill-opacity:1;stroke:none;display:inline"
       d="m 36.975002,41.424914 c -0.162007,-0.07213 -0.331036,-0.277454 -0.361293,-0.438897 -0.01334,-0.07131 -0.01859,-0.477129 -0.01163,-0.901816 0.01382,-0.84502 0.02262,-0.877761 0.289816,-1.077243 0.104358,-0.0779 0.165177,-0.083 0.990958,-0.083 0.825785,0 0.886606,0.0051 0.990959,0.083 0.274384,0.204855 0.277185,0.216839 0.277185,1.185138 0,0.825783 -0.0052,0.886606 -0.083,0.990958 -0.202034,0.270596 -0.224441,0.276247 -1.137643,0.286849 -0.631296,0.0073 -0.862214,-0.0037 -0.95531,-0.04497 z"
       id="path4948-3-1-6-5-7"
       inkscape:connector-curvature="0" />
  </g>
  <g
     inkscape:groupmode="layer"
     id="layer8"
     inkscape:label="Edit"
     style="display:none">
    <path
       style="fill:#00c000;fill-opacity:1;display:inline"
       d="m 20.949377,44.437923 c -0.488678,-0.395371 -0.496315,-0.531563 -0.496315,-4.051559 0,-3.57291 3.11e-4,-3.575234 0.51875,-3.957889 1.158486,-0.855055 5.502115,-0.910833 6.759744,-0.0868 0.479055,0.313889 0.502756,0.431903 0.502756,2.503384 0,1.602703 0.06816,2.17305 0.259375,2.170477 0.557635,-0.0075 3.64399,-1.396087 4.824375,-2.170536 1.651131,-1.083303 4.169926,-3.622178 5.254091,-5.295974 1.058638,-1.634387 2.011272,-4.032771 2.456026,-6.183372 0.495927,-2.398048 0.298432,-6.228192 -0.440817,-8.549128 C 39.313799,14.818075 36.98834,11.718954 33.439489,9.2906036 32.108391,8.3797823 29.09253,6.9890258 28.448506,6.9890258 c -0.134278,0 -0.214194,0.8516122 -0.214194,2.2825 l 0,2.2825002 -3.9425,0 -3.9425,0 0,-3.5159292 c 0,-3.4181411 0.01394,-3.5321216 0.501053,-4.098125 l 0.501054,-0.582196 2.663322,0.030612 c 3.349198,0.038496 5.906975,0.6516612 8.888321,2.1307606 6.054524,3.003759 11.105276,9.1890996 12.034145,15.8674566 0.06836,0.4915 -0.0081,5.999724 -0.128127,8.043074 -1.657548,3.91835 -0.544655,1.394547 -1.905758,4.074389 -1.048676,2.064712 -1.41512,2.494666 -2.818187,4.330916 -0.684753,0.896164 -2.574611,2.754166 -3.540747,3.424301 -0.966136,0.670135 -2.28284,1.488547 -2.969458,1.865813 -0.686619,0.377267 -4.301493,1.544778 -4.301493,1.544778 -5.226632,-0.09714 -7.845082,0.15557 -8.32406,-0.231953 z"
       id="path5047"
       inkscape:connector-curvature="0" />
    <path
       style="fill:#00c000;fill-opacity:1"
       d="m 29.119763,33.712098 c 0.196134,-0.05674 0.41882,-0.241806 0.486819,-0.404549 0.03061,-0.07326 0.05568,-0.216616 0.05568,-0.318525 0,-0.124639 -0.301065,-1.210621 -0.919747,-3.317665 -0.505858,-1.722805 -0.93496,-3.160012 -0.953554,-3.193792 -0.03641,-0.06615 -0.556509,-0.584128 -5.558909,-5.536316 l -3.267249,-3.234453 -0.509371,0.50824 -0.509368,0.508239 4.249516,4.249654 4.249515,4.249655 0.531856,1.808794 0.531861,1.808792 -0.367058,0.366794 -0.36706,0.366794 -1.72789,-0.50629 -1.727887,-0.506289 -4.313592,-4.291723 -4.31359,-4.291723 -0.565873,0.566885 -0.565872,0.566883 4.386221,4.342177 c 2.412421,2.388197 4.44413,4.371496 4.514907,4.40733 0.146625,0.07424 6.20065,1.852434 6.390768,1.877104 0.06833,0.0087 0.189783,-0.0028 0.269887,-0.02602 z m -4.826455,-4.172756 c 0.01237,-0.05178 0.05373,-0.304995 0.09188,-0.562715 l 0.06937,-0.468583 0.142738,-0.0363 c 0.0785,-0.01997 0.354323,-0.08457 0.612924,-0.143554 0.258603,-0.05897 0.46486,-0.121607 0.458344,-0.139158 -0.0064,-0.01756 -1.941338,-1.951329 -4.299615,-4.297291 l -4.287774,-4.265385 -0.704034,0.704849 -0.704032,0.704851 4.29885,4.298713 c 3.789582,3.789461 4.301519,4.287562 4.32136,4.20458 z m -8.805273,-9.992995 2.699709,-2.699927 -0.5977,-0.55513 c -0.328736,-0.305323 -0.612163,-0.559954 -0.62984,-0.565845 -0.01768,-0.0058 -1.242732,1.200755 -2.722343,2.68144 l -2.690203,2.692152 0.358705,0.337118 c 0.197288,0.185415 0.476439,0.443544 0.620335,0.573619 l 0.261628,0.236501 2.699709,-2.699928 z m -1.996808,-1.987735 2.581269,-2.582564 -0.489822,-0.499874 c -0.551855,-0.56318 -0.787336,-0.711446 -1.265737,-0.796941 -0.364303,-0.06509 -0.737151,-0.01092 -1.105307,0.160579 -0.2463,0.114747 -0.397528,0.253844 -1.791494,1.647813 -1.376326,1.376323 -1.5339954,1.547355 -1.6423703,1.78155 -0.2433022,0.525765 -0.2433408,1.080998 -1.196e-4,1.595307 0.090399,0.19115 0.2335549,0.365819 0.6247859,0.762329 l 0.507527,0.514364 2.581268,-2.582563 z"
       id="path5162"
       inkscape:connector-curvature="0" />
  </g>
  <g
     inkscape:groupmode="layer"
     id="layer9"
     inkscape:label="Utils"
     style="display:none">
    <path
       style="fill:#00c000;fill-opacity:1;stroke:#00ba00;stroke-width:0;stroke-miterlimit:4;stroke-opacity:1;stroke-dasharray:none"
       d="M 21.509438,43.481987 C 20.098782,42.965695 18.188988,41.215126 17.670311,39.962926 17.434598,39.393863 16.287306,38.41619 14.312338,37.101399 10.777253,34.747995 7.139743,31.225645 6.066424,29.116532 5.47779,27.959845 5.302338,27.147273 5.303192,25.581739 c 0.0016,-2.361135 0.636607,-3.410937 1.970223,-3.255567 0.696393,0.08115 0.801392,0.263839 0.976597,1.699328 0.195536,1.602056 0.924124,3.130473 1.492281,3.130473 0.428028,0 0.369547,-0.50481 -0.182033,-1.571456 -0.642163,-1.241798 -0.377712,-1.791635 0.861701,-1.791635 1.954373,0 3.287845,1.73599 3.287845,4.280298 0,0.683417 0.189703,1.696593 0.421555,2.251501 0.399507,0.956145 1.799595,2.334532 2.371298,2.334532 0.145476,0 0.264502,-1.19181 0.264502,-2.648469 l 0,-2.648459 -5.193943,-7.242083 C 8.716549,16.137056 6.154463,12.341559 5.879699,11.685759 5.60492,11.029959 5.310722,9.389673 5.225911,8.040679 5.030071,4.925572 5.380291,4.474828 7.253886,5.430663 c 0.678732,0.346263 1.56665,0.629573 1.973145,0.629573 0.912574,0 1.549379,0.715918 1.342039,1.50878 -0.117248,0.448357 0.06208,0.670701 0.728259,0.902929 0.714225,0.248983 0.883798,0.487133 0.883798,1.241206 0,0.709007 0.137868,0.933114 0.574036,0.933114 0.790938,0 1.269501,0.663424 1.059056,1.468151 -0.137621,0.526268 -0.04349,0.671998 0.433963,0.671998 0.805337,0 1.407972,0.761878 1.207878,1.527044 -0.08819,0.337204 -0.0469,0.6131 0.09178,0.6131 0.138659,0 0.448819,0.07555 0.68925,0.167749 0.349795,0.134231 0.473723,-0.350556 0.620205,-2.426163 0.275207,-3.899719 1.849032,-6.330513 4.764775,-7.359243 3.821156,-1.348184 5.895058,-0.210962 10.583698,5.803555 1.176515,1.509214 3.628143,4.63674 5.448066,6.950062 2.730192,3.470383 3.602139,4.851842 4.985323,7.898397 1.921147,4.231481 1.885596,4.558147 -0.496059,4.558147 -2.825036,0 -4.765889,-1.399365 -8.759979,-6.316014 l -2.399265,-2.953441 -0.152866,8.991456 c -0.171026,10.059511 -0.163924,10.024612 -2.435551,11.969034 -2.008458,1.719172 -4.437843,2.167888 -6.885999,1.27189 z m 4.58265,-1.617097 c 1.414828,-0.652988 2.420397,-1.657664 2.884121,-2.881577 0.525083,-1.385847 0.442403,-28.078339 -0.09091,-29.354782 -1.304803,-3.122832 -5.615814,-4.169537 -8.245436,-2.001973 -2.274202,1.874587 -2.191139,1.238572 -2.191139,16.777796 0,15.503394 -0.06935,14.961147 2.139852,16.727486 1.770573,1.415631 3.519768,1.648613 5.503529,0.73305 z m -2.960611,-3.320274 c -0.06931,-0.601999 -0.292103,-0.868517 -0.784648,-0.93847 -1.043674,-0.148226 -0.974391,-1.583846 0.07645,-1.583846 0.611469,0 0.764337,-0.152869 0.764337,-0.764338 0,-0.611477 0.152872,-0.764342 0.764339,-0.764342 0.611466,0 0.764337,0.152865 0.764337,0.764342 0,0.611469 0.152869,0.764338 0.764341,0.764338 0.611468,0 0.764337,0.152866 0.764337,0.764333 0,0.611473 -0.152869,0.764343 -0.764337,0.764343 -0.645448,0 -0.764345,0.142675 -0.764345,0.917204 0,0.767859 -0.121153,0.917211 -0.74403,0.917211 -0.584392,0 -0.764786,-0.180395 -0.840771,-0.840775 z m -0.430591,-25.91107 c -0.463928,-0.708046 -0.463928,-0.820635 0,-1.528679 0.887025,-1.353773 2.626865,-0.847533 2.626865,0.764339 0,1.611868 -1.73984,2.11811 -2.626865,0.76434 z m -5.933725,23.089232 c 0,-1.105127 -0.108647,-1.272159 -1.184482,-1.821008 -2.154982,-1.099391 -3.363449,-3.15814 -3.421332,-5.82859 -0.01277,-0.588541 -0.152582,-1.345233 -0.310725,-1.681546 -0.216429,-0.460265 -0.246886,-0.335387 -0.123165,0.504984 0.215935,1.4667 -0.478788,2.228295 -1.79289,1.965476 -1.13194,-0.226385 -1.920166,-0.912169 -2.663433,-2.317273 -0.862971,-1.631395 -0.749243,-0.191349 0.132772,1.681228 0.845839,1.79577 3.997132,4.992425 7.070236,7.172006 1.177088,0.834842 2.174544,1.523193 2.216582,1.529669 0.04202,0.0064 0.07646,-0.535745 0.07646,-1.204945 z m 25.376033,-6.99581 c 0,-0.144872 -0.570612,-1.486289 -1.268018,-2.980916 -0.936641,-2.007328 -2.339658,-4.075792 -5.368664,-7.915007 -2.255359,-2.858626 -4.229998,-5.243362 -4.388088,-5.299412 -0.167077,-0.05919 -0.287436,1.180559 -0.287436,2.960889 l 0,3.0628 1.882218,2.38948 c 3.27401,4.156372 5.251107,6.288948 6.65703,7.180561 1.3127,0.832489 2.772958,1.1493 2.772958,0.601605 z M 16.015163,18.427178 c -0.427173,-0.395892 -0.776677,-0.986621 -0.776677,-1.31273 0,-0.383952 -0.280894,-0.663424 -0.796986,-0.792952 -0.671261,-0.168478 -0.776691,-0.338268 -0.668357,-1.076382 0.110751,-0.754607 0.01193,-0.899687 -0.711455,-1.044363 C 12.378379,14.064089 12.203574,13.845601 12.12494,13.029909 12.05575,12.312398 11.854288,11.994561 11.416791,11.912775 10.629185,11.765545 10.330784,11.27481 10.534734,10.462204 10.667895,9.931658 10.527334,9.78046 9.757675,9.626536 8.971742,9.46935 8.818037,9.295717 8.818037,8.565054 8.818037,7.83309 8.644603,7.638276 7.747965,7.363088 6.708942,7.044201 6.677896,7.058519 6.677896,7.856634 c 0,2.38118 0.792411,3.895783 5.36826,10.260839 l 4.568138,6.354328 0.08879,-2.662414 c 0.08378,-2.513779 0.04542,-2.702596 -0.687908,-3.382209 z"
       id="path4257"
       inkscape:connector-curvature="0" />
  </g>
  <g
     inkscape:groupmode="layer"
     id="layer10"
     inkscape:label="Incidencias"
     style="display:none">
    <path
       style="fill:#00c000;fill-opacity:1;stroke:#00c000;stroke-width:0.64863992;stroke-opacity:1;display:inline"
       d="m 28.081552,33.121086 c -0.316986,-0.256452 -0.321938,-0.344795 -0.321938,-2.627998 0,-2.317536 2.05e-4,-2.31904 0.336482,-2.567249 0.751442,-0.554622 3.568892,-0.590802 4.38464,-0.05632 0.310736,0.203599 0.326104,0.28015 0.326104,1.623797 0,1.039576 0.04423,1.409527 0.168244,1.407862 0.361703,-0.005 2.363638,-0.905563 3.12928,-1.407901 1.070994,-0.702672 2.704782,-2.349492 3.40801,-3.435182 0.68668,-1.06013 1.304595,-2.615817 1.593087,-4.010783 0.321673,-1.555467 0.193573,-4.039855 -0.285931,-5.545309 C 39.99344,13.90845 38.485053,11.898234 36.183132,10.323108 35.31972,9.732313 33.363519,8.830213 32.945774,8.830213 c -0.08706,0 -0.138934,0.552388 -0.138934,1.480521 l 0,1.480524 -2.557262,0 -2.557255,0 0,-2.280577 c 0,-2.217141 0.0094,-2.291075 0.324994,-2.658204 l 0.325009,-0.377644 1.727531,0.01985 c 2.17243,0.02498 3.831508,0.422693 5.765329,1.382098 3.927205,1.94836 7.203327,5.960419 7.805817,10.292261 0.04434,0.318814 -0.0053,3.891663 -0.08311,5.217067 -1.07515,2.541596 -0.353288,0.904551 -1.236154,2.642803 -0.680212,1.339255 -0.917894,1.618141 -1.827989,2.809212 -0.444153,0.581289 -1.669993,1.786462 -2.296669,2.221135 -0.626678,0.434676 -1.480742,0.965532 -1.926108,1.210246 -0.445372,0.244714 -2.790112,1.002001 -2.790112,1.002001 -3.390207,-0.06298 -5.088639,0.100892 -5.39932,-0.150458 z"
       id="path5047-9-0"
       inkscape:connector-curvature="0" />
    <path
       id="path4119"
       style="fill:none;stroke:#00c000;stroke-width:1.5;stroke-linecap:butt;stroke-linejoin:miter;stroke-miterlimit:4;stroke-opacity:1;stroke-dasharray:none"
       d="m 29.079766,20.124738 -3.093592,0 c -1.296362,-0.117851 -1.090123,0.294628 -1.237437,-1.679378 l 0.08839,-2.740039 m -14.09551,-0.03762 14.225659,-0.08839 4.15011,4.503663 c 0,27.790963 0.08839,11.89972 0.08839,18.733464 0,1.466719 -1.180788,2.647508 -2.647508,2.647508 l -15.816649,0 c -1.4667197,0 -2.6475084,-1.180789 -2.6475084,-2.647508 l 0,-20.501231 c 0,-1.46672 1.180817,-2.638395 2.6475064,-2.647506 z"
       inkscape:connector-curvature="0" />
    <path
       style="fill:none;stroke:#00c000;stroke-width:1.5;stroke-linecap:round;stroke-linejoin:miter;stroke-miterlimit:4;stroke-opacity:1;stroke-dasharray:none"
       d="m 11.163821,20.124738 9.444402,0"
       id="path4149"
       inkscape:connector-curvature="0" />
    <path
       style="fill:none;stroke:#00c000;stroke-width:1.5;stroke-linecap:round;stroke-linejoin:miter;stroke-miterlimit:4;stroke-opacity:1;stroke-dasharray:none"
       d="m 12.35,23.947976 12.125138,0"
       id="path4149-9"
       inkscape:connector-curvature="0" />
    <path
       style="fill:none;stroke:#00c000;stroke-width:1.5;stroke-linecap:round;stroke-linejoin:miter;stroke-miterlimit:4;stroke-opacity:1;stroke-dasharray:none"
       d="m 12.35,27.21835 12.125138,0"
       id="path4149-9-1"
       inkscape:connector-curvature="0" />
    <path
       style="fill:none;stroke:#00c000;stroke-width:1.5;stroke-linecap:round;stroke-linejoin:miter;stroke-miterlimit:4;stroke-opacity:1;stroke-dasharray:none"
       d="m 12.35,30.590963 12.125138,0"
       id="path4149-9-6"
       inkscape:connector-curvature="0" />
    <path
       style="fill:none;stroke:#00c000;stroke-width:1.5;stroke-linecap:round;stroke-linejoin:miter;stroke-miterlimit:4;stroke-opacity:1;stroke-dasharray:none"
       d="m 12.35,33.861337 12.125138,0"
       id="path4149-9-1-9"
       inkscape:connector-curvature="0" />
    <path
       style="fill:none;stroke:#00c000;stroke-width:1.5;stroke-linecap:round;stroke-linejoin:miter;stroke-miterlimit:4;stroke-opacity:1;stroke-dasharray:none"
       d="m 18.455015,38.509513 5.93579,0"
       id="path4149-7"
       inkscape:connector-curvature="0" />
  </g>
  <g
     inkscape:groupmode="layer"
     id="layer11"
     inkscape:label="Ajustes"
     style="display:none">
    <path
       style="fill:#00c000;fill-opacity:1"
       d="m 24,3.34375 c -0.600877,0 -1.207084,0.037633 -1.46875,0.09375 -0.447747,0.096025 -0.985195,0.5150366 -1.1875,0.90625 -0.06712,0.1297905 -0.24099,0.9799236 -0.375,1.90625 -0.160868,1.1119827 -0.299208,1.7901812 -0.40625,2 -0.320791,0.6288014 -0.806451,0.9678216 -2.53125,1.6875 -1.553498,0.648199 -1.643917,0.65815 -2.28125,0.65625 -0.798098,-0.0024 -0.786271,0.0056 -2.375,-1.1875 -1.361117,-1.0221534 -1.581401,-1.125 -2.125,-1.125 -0.610093,0 -0.929697,0.1918757 -2,1.25 -1.105649,1.093068 -1.3125,1.434808 -1.3125,2.0625 0,0.530446 0.11419,0.744058 1.15625,2.125 1.148255,1.521671 1.15385,1.572423 1.15625,2.375 0.0019,0.637333 -0.008,0.727752 -0.65625,2.28125 -0.718286,1.721461 -1.032647,2.213112 -1.65625,2.53125 -0.203966,0.104056 -0.902296,0.247628 -2,0.40625 C 5.011533,21.446304 4.130714,21.6199 4,21.6875 3.71591,21.834409 3.279002,22.323678 3.15625,22.625 3.02762,22.940745 2.955331,25.113056 3.0625,25.6875 c 0.101654,0.544878 0.38706,0.947778 0.84375,1.25 0.25179,0.166627 0.587327,0.233131 2,0.4375 2.584773,0.373934 2.648229,0.426882 3.71875,3 0.627834,1.509071 0.6269,1.583352 0.625,2.21875 -0.0024,0.801264 -0.02265,0.839912 -1.15625,2.34375 -1.019058,1.351889 -1.1706,1.628288 -1.25,2.0625 -0.107767,0.589333 0.020301,0.814819 1.09375,1.90625 0.874631,0.889283 1.06992,1.029822 1.5,1.1875 0.297162,0.108947 0.705394,0.1806 1.03125,0.1875 L 12,40.3125 13.28125,39.34375 c 1.655576,-1.242583 1.661835,-1.2476 2.46875,-1.25 0.639507,-0.0019 0.723427,0.01084 2.34375,0.6875 2.461647,1.028012 2.50591,1.104955 2.875,3.65625 0.13401,0.926326 0.30788,1.77646 0.375,1.90625 0.184528,0.356837 0.746651,0.82117 1.125,0.90625 0.46528,0.104616 2.552019,0.103222 3,0 0.439457,-0.101259 0.851431,-0.367858 1.125,-0.78125 0.166627,-0.251789 0.233132,-0.587327 0.4375,-2 0.373988,-2.585149 0.409749,-2.660478 2.875,-3.6875 1.628292,-0.678346 1.704414,-0.6894 2.34375,-0.6875 0.802577,0.0024 0.853329,0.03925 2.375,1.1875 1.373339,1.036324 1.60863,1.15625 2.125,1.15625 0.632654,0 0.92159,-0.183861 2,-1.25 1.105649,-1.093067 1.34375,-1.466058 1.34375,-2.09375 0,-0.531884 -0.124988,-0.748172 -1.1875,-2.15625 -1.091674,-1.446723 -1.23172,-1.73648 -1.1875,-2.46875 0.02732,-0.452362 0.140739,-0.825255 0.71875,-2.21875 1.022261,-2.464515 1.073237,-2.501321 3.65625,-2.875 1.046185,-0.151349 1.808203,-0.29304 1.9375,-0.375 0.358838,-0.227474 0.566713,-0.47177 0.75,-0.8125 0.162457,-0.302011 0.187425,-0.446949 0.1875,-1.84375 8.8e-5,-1.649701 -0.04254,-1.786075 -0.53125,-2.3125 C 44.077698,21.643679 43.844929,21.565549 42.09375,21.3125 40.294915,21.052564 40.00031,20.955778 39.5,20.46875 39.156677,20.134542 39.06332,19.903391 38.28125,17.96875 37.718476,16.576603 37.6812,16.524854 37.71875,16 c 0.04914,-0.686746 0.156742,-0.873871 1.21875,-2.28125 1.042061,-1.380942 1.15625,-1.594554 1.15625,-2.125 0,-0.627692 -0.238101,-0.969432 -1.34375,-2.0625 -1.070303,-1.0581243 -1.389906,-1.25 -2,-1.25 -0.543599,0 -0.763883,0.1028466 -2.125,1.125 -1.588729,1.193084 -1.576902,1.1851 -2.375,1.1875 -0.636004,0.0019 -0.708241,0.0055 -2.21875,-0.625 C 28.364322,9.2729446 28.071041,9.1037543 27.75,8.71875 27.364365,8.2562834 27.275694,7.9396898 27.03125,6.25 26.897148,5.3230321 26.75462,4.4735405 26.6875,4.34375 26.485196,3.9525366 25.916497,3.533525 25.46875,3.4375 25.207085,3.3813828 24.600877,3.34375 24,3.34375 z m 0.125,13.1875 c 4.348879,0 7.875,3.526121 7.875,7.875 0,4.348879 -3.526121,7.875 -7.875,7.875 -4.348879,0 -7.875,-3.526121 -7.875,-7.875 0,-4.348879 3.526121,-7.875 7.875,-7.875 z m -0.0625,2.5625 c -2.804537,-0.02523 -5.3125,2.293492 -5.3125,5.25 0,2.420599 1.748994,4.583924 4.125,5.125 0.702175,0.159903 1.989431,0.127246 2.6875,-0.09375 2.148683,-0.680233 3.6875,-2.791285 3.6875,-5.03125 0,-2.374552 -1.6435,-4.499051 -3.96875,-5.09375 -0.407131,-0.104126 -0.818102,-0.152646 -1.21875,-0.15625 z"
       id="path4471"
       inkscape:connector-curvature="0" />
  </g>
  <g
     style="display:none"
     inkscape:label="Notas"
     id="g3040"
     inkscape:groupmode="layer">
    <path
       inkscape:connector-curvature="0"
       id="path3042"
       d="M 38.307412,7.814919 C 37.893733,6.015679 36.65029,4.632511 35.032822,4.172341 34.504432,4.022281 34.205,4.018044 22.714039,4.018044 c -11.490962,0 -11.790394,0.00398 -12.318783,0.154297 C 9.5684839,4.407561 8.9262697,4.816173 8.3128623,5.498513 7.375039,6.541723 6.9819555,7.67559 6.9819555,9.33445 l 0,0.917969 0,7.53125 0,6.234375 0,6.234375 0,7.53125 0,0.917969 c 0,1.65885 0.3930835,2.792723 1.3309068,3.835937 0.6134074,0.68234 1.2556216,1.090957 2.0823937,1.326172 0.528389,0.150326 0.827821,0.154297 12.318783,0.154297 11.490961,0 11.790393,-0.004 12.318783,-0.154297 1.603689,-0.456246 2.852711,-1.837003 3.271079,-3.613281 0.129727,-0.5506 -0.115066,-0.849034 -0.111291,-15.972934 l -1.981084,1.96584 c 0.01384,16.190541 -0.01289,13.350915 -0.311333,13.987565 -0.173707,0.37056 -0.759089,0.932946 -1.143034,1.097656 -0.337954,0.1448 -0.653235,0.150391 -9.79568,0.150391 -9.158875,0 -9.457155,-0.0044 -9.797436,-0.150391 -0.459736,-0.19721 -1.030794,-0.804739 -1.239603,-1.318359 l -0.165047,-0.40625 0,-15.585938 0,-15.585938 0.165047,-0.40625 c 0.208809,-0.51362 0.779868,-1.121149 1.239603,-1.318359 0.340281,-0.14556 0.638561,-0.150391 9.797436,-0.150391 9.158875,10e-7 9.457155,0.0044 9.797436,0.150391 0.459737,0.19721 1.030794,0.80474 1.239604,1.318359 l 0.165046,0.40625 0.01404,3.374396 2.140003,-2.024659 -0.0102,-1.966924"
       style="fill:#00c000;fill-opacity:1;stroke:none"
       sodipodi:nodetypes="ccscsscccccssssccccscscccccccscccccc" />
    <path
       inkscape:connector-curvature="0"
       id="path3058-0"
       d="m 10.068861,26.157464 c -0.161073,0.379041 -0.619102,0.773443 -0.97837,0.842469 -0.158964,0.03062 -1.7096562,0.04282 -3.4459888,0.0272 -3.0263155,-0.02706 -3.1672173,-0.03634 -3.4046511,-0.222107 -0.6115204,-0.478512 -0.6177428,-0.506392 -0.6177428,-2.767468 0,-2.261158 0.00619,-2.289138 0.6178844,-2.767513 0.2400903,-0.18778 0.3538527,-0.193833 3.6448587,-0.193833 3.2910076,0 3.4047736,0.0062 3.6448606,0.193833 0.603204,0.47178 0.615794,0.524104 0.639428,2.6566 0.01632,1.474189 -0.0082,2.013429 -0.100277,2.230826 z"
       style="fill:#00c000;fill-opacity:1;stroke:#ffffff;stroke-width:1.29327095;stroke-miterlimit:4;stroke-opacity:1;stroke-dasharray:none;display:inline" />
    <path
       style="fill:#00c000;fill-opacity:1;display:inline"
       d="m 26.983502,28.843481 c -0.196134,-0.05674 -0.41882,-0.241806 -0.486819,-0.404549 -0.03061,-0.07326 -0.05568,-0.216616 -0.05568,-0.318525 0,-0.124639 0.301065,-1.210621 0.919747,-3.317665 0.505858,-1.722805 0.93496,-3.160012 0.953554,-3.193792 0.03641,-0.06615 0.556509,-0.584128 5.558909,-5.536316 l 3.267248,-3.234453 0.509371,0.50824 0.509368,0.508239 -4.249515,4.249654 -4.249515,4.249655 -0.531856,1.808794 -0.531861,1.808792 0.367058,0.366794 0.36706,0.366794 1.72789,-0.50629 1.727887,-0.506289 4.313591,-4.291723 4.31359,-4.291723 0.565873,0.566885 0.565872,0.566883 -4.386221,4.342177 c -2.41242,2.388197 -4.444129,4.371496 -4.514906,4.40733 -0.146625,0.07424 -6.20065,1.852434 -6.390768,1.877104 -0.06833,0.0087 -0.189783,-0.0028 -0.269887,-0.02602 z m 4.826455,-4.172756 c -0.01237,-0.05178 -0.05373,-0.304995 -0.09188,-0.562715 l -0.06937,-0.468583 -0.142738,-0.0363 c -0.0785,-0.01997 -0.354323,-0.08457 -0.612924,-0.143554 -0.258603,-0.05897 -0.46486,-0.121607 -0.458344,-0.139158 0.0064,-0.01756 1.941338,-1.951329 4.299615,-4.297291 l 4.287773,-4.265385 0.704034,0.704849 0.704032,0.704851 -4.298849,4.298713 c -3.789582,3.789461 -4.301519,4.287562 -4.32136,4.20458 z m 8.805272,-9.992995 -2.699709,-2.699927 0.5977,-0.55513 c 0.328736,-0.305323 0.612163,-0.559954 0.62984,-0.565845 0.01768,-0.0058 1.242732,1.200755 2.722343,2.68144 l 2.690203,2.692152 -0.358705,0.337118 c -0.197288,0.185415 -0.476439,0.443544 -0.620335,0.573619 l -0.261628,0.236501 -2.699709,-2.699928 z m 1.996808,-1.987735 -2.581269,-2.582564 0.489822,-0.499874 c 0.551855,-0.56318 0.787336,-0.711446 1.265737,-0.796941 0.364303,-0.06509 0.737151,-0.01092 1.105307,0.160579 0.2463,0.114747 0.397528,0.253844 1.791494,1.647813 1.376326,1.376323 1.533996,1.547355 1.642371,1.78155 0.243302,0.525765 0.24334,1.080998 1.19e-4,1.595307 -0.0904,0.19115 -0.233555,0.365819 -0.624786,0.762329 l -0.507527,0.514364 -2.581268,-2.582563 z"
       id="path5162-6"
       inkscape:connector-curvature="0" />
    <path
       inkscape:connector-curvature="0"
       id="path3058-0-3"
       d="m 10.068389,16.116217 c -0.1610735,0.379041 -0.6191025,0.773443 -0.9783705,0.842469 -0.158964,0.03062 -1.709656,0.04282 -3.445989,0.0272 -3.026315,-0.02706 -3.167217,-0.03634 -3.404651,-0.222107 -0.61152,-0.478512 -0.617743,-0.506392 -0.617743,-2.767468 0,-2.261158 0.0062,-2.289138 0.617885,-2.767513 0.24009,-0.18778 0.353852,-0.193833 3.644858,-0.193833 3.291008,0 3.404774,0.0062 3.644861,0.193833 0.6032045,0.47178 0.6157945,0.524104 0.6394285,2.6566 0.01632,1.474189 -0.0082,2.013429 -0.100277,2.230826 z"
       style="fill:#00c000;fill-opacity:1;stroke:#ffffff;stroke-width:1.29327095;stroke-miterlimit:4;stroke-opacity:1;stroke-dasharray:none;display:inline" />
    <path
       inkscape:connector-curvature="0"
       id="path3058-0-8"
       d="m 10.068388,36.126625 c -0.1610725,0.379041 -0.6191015,0.773443 -0.9783695,0.842469 -0.158964,0.03062 -1.709656,0.04282 -3.445989,0.0272 -3.026315,-0.02706 -3.167217,-0.03634 -3.404651,-0.222107 -0.61152,-0.478512 -0.617743,-0.506392 -0.617743,-2.767468 0,-2.261158 0.0062,-2.289138 0.617885,-2.767513 0.24009,-0.18778 0.353853,-0.193833 3.644859,-0.193833 3.291007,0 3.404773,0.0062 3.64486,0.193833 0.6032035,0.47178 0.6157935,0.524104 0.6394275,2.6566 0.01632,1.474189 -0.0082,2.013429 -0.100277,2.230826 z"
       style="fill:#00c000;fill-opacity:1;stroke:#ffffff;stroke-width:1.29327095;stroke-miterlimit:4;stroke-opacity:1;stroke-dasharray:none;display:inline" />
    <path
       style="fill:none;stroke:#00c000;stroke-width:1.5;stroke-linecap:round;stroke-linejoin:miter;stroke-miterlimit:4;stroke-opacity:1;stroke-dasharray:none;display:inline"
       d="m 16.65,28.4375 8.332054,0"
       id="path4149-9-9"
       inkscape:connector-curvature="0" />
    <path
       style="fill:none;stroke:#00c000;stroke-width:1.5;stroke-linecap:round;stroke-linejoin:miter;stroke-miterlimit:4;stroke-opacity:1;stroke-dasharray:none;display:inline"
       d="m 16.65,15.625 12.125138,0"
       id="path4149-9-8"
       inkscape:connector-curvature="0" />
    <path
       style="fill:none;stroke:#00c000;stroke-width:1.5;stroke-linecap:round;stroke-linejoin:miter;stroke-miterlimit:4;stroke-opacity:1;stroke-dasharray:none;display:inline"
       d="m 16.65,22.125 4.575092,0"
       id="path4149-9-67"
       inkscape:connector-curvature="0" />
  </g>
  <g
     inkscape:groupmode="layer"
     id="g3049"
     inkscape:label="Notas-hecho"
     style="display:none">
    <path
       sodipodi:nodetypes="ccscsscccccssssccccscscccccccscccccc"
       style="fill:#00c000;fill-opacity:1;stroke:none"
       d="M 38.307412,7.814919 C 37.893733,6.015679 36.65029,4.632511 35.032822,4.172341 34.504432,4.022281 34.205,4.018044 22.714039,4.018044 c -11.490962,0 -11.790394,0.00398 -12.318783,0.154297 C 9.5684839,4.407561 8.9262697,4.816173 8.3128623,5.498513 7.375039,6.541723 6.9819555,7.67559 6.9819555,9.33445 l 0,0.917969 0,7.53125 0,6.234375 0,6.234375 0,7.53125 0,0.917969 c 0,1.65885 0.3930835,2.792723 1.3309068,3.835937 0.6134074,0.68234 1.2556216,1.090957 2.0823937,1.326172 0.528389,0.150326 0.827821,0.154297 12.318783,0.154297 11.490961,0 11.790393,-0.004 12.318783,-0.154297 1.603689,-0.456246 2.852711,-1.837003 3.271079,-3.613281 0.129727,-0.5506 0.0099,-1.036534 0.01371,-16.160434 l -2.106084,2.15334 c 0.01384,16.190541 -0.01289,13.350915 -0.311333,13.987565 -0.173707,0.37056 -0.759089,0.932946 -1.143034,1.097656 -0.337954,0.1448 -0.653235,0.150391 -9.79568,0.150391 -9.158875,0 -9.457155,-0.0044 -9.797436,-0.150391 -0.459736,-0.19721 -1.030794,-0.804739 -1.239603,-1.318359 l -0.165047,-0.40625 0,-15.585938 0,-15.585938 0.165047,-0.40625 c 0.208809,-0.51362 0.779868,-1.121149 1.239603,-1.318359 0.340281,-0.14556 0.638561,-0.150391 9.797436,-0.150391 9.158875,10e-7 9.457155,0.0044 9.797436,0.150391 0.459737,0.19721 1.030794,0.80474 1.239604,1.318359 l 0.165046,0.40625 -0.04846,6.624396 2.202503,-1.962159 -0.0102,-5.279424"
       id="path3051"
       inkscape:connector-curvature="0" />
    <path
       style="fill:#00c000;fill-opacity:1;stroke:#ffffff;stroke-width:1.29327095;stroke-miterlimit:4;stroke-opacity:1;stroke-dasharray:none;display:inline"
       d="m 10.068861,26.157464 c -0.161073,0.379041 -0.619102,0.773443 -0.97837,0.842469 -0.158964,0.03062 -1.7096562,0.04282 -3.4459888,0.0272 -3.0263155,-0.02706 -3.1672173,-0.03634 -3.4046511,-0.222107 -0.6115204,-0.478512 -0.6177428,-0.506392 -0.6177428,-2.767468 0,-2.261158 0.00619,-2.289138 0.6178844,-2.767513 0.2400903,-0.18778 0.3538527,-0.193833 3.6448587,-0.193833 3.2910076,0 3.4047736,0.0062 3.6448606,0.193833 0.603204,0.47178 0.615794,0.524104 0.639428,2.6566 0.01632,1.474189 -0.0082,2.013429 -0.100277,2.230826 z"
       id="path3053"
       inkscape:connector-curvature="0" />
    <path
       style="fill:#00c000;fill-opacity:1;stroke:#ffffff;stroke-width:1.29327095;stroke-miterlimit:4;stroke-opacity:1;stroke-dasharray:none;display:inline"
       d="m 10.068389,16.116217 c -0.1610735,0.379041 -0.6191025,0.773443 -0.9783705,0.842469 -0.158964,0.03062 -1.709656,0.04282 -3.445989,0.0272 -3.026315,-0.02706 -3.167217,-0.03634 -3.404651,-0.222107 -0.61152,-0.478512 -0.617743,-0.506392 -0.617743,-2.767468 0,-2.261158 0.0062,-2.289138 0.617885,-2.767513 0.24009,-0.18778 0.353852,-0.193833 3.644858,-0.193833 3.291008,0 3.404774,0.0062 3.644861,0.193833 0.6032045,0.47178 0.6157945,0.524104 0.6394285,2.6566 0.01632,1.474189 -0.0082,2.013429 -0.100277,2.230826 z"
       id="path3057"
       inkscape:connector-curvature="0" />
    <path
       style="fill:#00c000;fill-opacity:1;stroke:#ffffff;stroke-width:1.29327095;stroke-miterlimit:4;stroke-opacity:1;stroke-dasharray:none;display:inline"
       d="m 10.068388,36.126625 c -0.1610725,0.379041 -0.6191015,0.773443 -0.9783695,0.842469 -0.158964,0.03062 -1.709656,0.04282 -3.445989,0.0272 -3.026315,-0.02706 -3.167217,-0.03634 -3.404651,-0.222107 -0.61152,-0.478512 -0.617743,-0.506392 -0.617743,-2.767468 0,-2.261158 0.0062,-2.289138 0.617885,-2.767513 0.24009,-0.18778 0.353853,-0.193833 3.644859,-0.193833 3.291007,0 3.404773,0.0062 3.64486,0.193833 0.6032035,0.47178 0.6157935,0.524104 0.6394275,2.6566 0.01632,1.474189 -0.0082,2.013429 -0.100277,2.230826 z"
       id="path3059"
       inkscape:connector-curvature="0" />
    <path
       inkscape:connector-curvature="0"
       id="path3061"
       d="m 16.65,28.4375 8.332054,0"
       style="fill:none;stroke:#00c000;stroke-width:1.5;stroke-linecap:round;stroke-linejoin:miter;stroke-miterlimit:4;stroke-opacity:1;stroke-dasharray:none;display:inline" />
    <path
       inkscape:connector-curvature="0"
       id="path3063"
       d="m 16.65,15.625 12.125138,0"
       style="fill:none;stroke:#00c000;stroke-width:1.5;stroke-linecap:round;stroke-linejoin:miter;stroke-miterlimit:4;stroke-opacity:1;stroke-dasharray:none;display:inline" />
    <path
       inkscape:connector-curvature="0"
       id="path3065"
       d="m 16.65,22.125 4.575092,0"
       style="fill:none;stroke:#00c000;stroke-width:1.5;stroke-linecap:round;stroke-linejoin:miter;stroke-miterlimit:4;stroke-opacity:1;stroke-dasharray:none;display:inline" />
    <path
       style="fill:#00c000;fill-opacity:1;fill-rule:evenodd"
       inkscape:connector-curvature="0"
       clip-rule="evenodd"
       d="m 43.653625,11.53775 c -0.293,-0.295 -0.77,-0.295 -1.061,0 l -11.181,11.129 c -0.293,0.297 -0.771,0.297 -1.062,0 l -4.899,-4.989 c -0.145,-0.148 -0.335,-0.221 -0.526,-0.222 -0.193,-10e-4 -0.389,0.072 -0.536,0.222 l -2.165,1.946 c -0.144,0.148 -0.222,0.333 -0.222,0.526 0,0.194 0.078,0.397 0.223,0.544 l 4.94,5.184 c 0.292,0.296 0.771,0.776 1.062,1.07 l 2.124,2.141 c 0.292,0.293 0.769,0.293 1.062,0 l 14.366,-14.34 c 0.293,-0.294 0.293,-0.777 0,-1.071 l -2.125,-2.14 z"
       id="path3096" />
  </g>
  <g
     inkscape:groupmode="layer"
     id="layer12"
     inkscape:label="Componente"
     style="display:none">
    <g
       id="g3151"
       transform="translate(-0.8125,0)">
      <path
         style="fill:none;stroke:#00c000;stroke-width:1.25;stroke-linecap:butt;stroke-linejoin:miter;stroke-miterlimit:4;stroke-opacity:1;stroke-dasharray:none;display:inline"
         d="m 26.222272,32.994088 -17.052491,0 c -1.317139,0 -2.377506,-1.060368 -2.377506,-2.377506 l 0,-18.410438 c 0,-1.317138 1.060367,-2.377506 2.377506,-2.377506 l 30.410439,0 c 1.317139,0 2.377506,1.060368 2.377506,2.377506 l 0,18.410438 c 0,1.317138 -1.060367,2.377506 -2.377506,2.377506 l -6.29011,0"
         id="rect3417-4"
         inkscape:connector-curvature="0"
         sodipodi:nodetypes="cssssssssc" />
      <path
         inkscape:connector-curvature="0"
         id="path4039"
         d="m 15.375,16.348863 0,10"
         style="fill:none;stroke:#00c000;stroke-width:1px;stroke-linecap:butt;stroke-linejoin:miter;stroke-opacity:1" />
      <path
         inkscape:connector-curvature="0"
         id="path4041"
         d="m 4.375,21.348863 11,0"
         style="fill:none;stroke:#00c000;stroke-width:1px;stroke-linecap:butt;stroke-linejoin:miter;stroke-opacity:1" />
      <path
         inkscape:connector-curvature="0"
         id="path4043"
         d="m 29.375,16.348863 3,10"
         style="fill:none;stroke:#00c000;stroke-width:1px;stroke-linecap:butt;stroke-linejoin:miter;stroke-opacity:1" />
      <path
         sodipodi:nodetypes="cc"
         inkscape:connector-curvature="0"
         id="path4045"
         d="m 45.25,21.348863 -14,0"
         style="fill:none;stroke:#00c000;stroke-width:1px;stroke-linecap:butt;stroke-linejoin:miter;stroke-opacity:1" />
      <path
         sodipodi:nodetypes="czzzzzzzzzzzzzzzzzzc"
         inkscape:connector-curvature="0"
         id="path3093"
         d="m 29.557758,39.780128 c 0,0 0.27921,0.156773 0.27921,-0.504071 0,-0.660843 -0.558419,-0.127018 -0.558419,-1.008143 0,-0.881125 0.558419,-0.127017 0.558419,-1.008142 0,-0.881125 -0.558419,-0.127018 -0.558419,-1.008145 0,-0.881124 0.558419,-0.127017 0.558419,-1.008144 0,-0.881125 -0.558419,-0.127017 -0.558419,-1.008142 0,-0.881127 0.558419,-0.127017 0.558419,-1.008145 0,-0.881124 -0.558419,-0.127016 -0.558419,-1.008142 0,-0.881124 0.558419,-0.127018 0.558419,-1.008143 0,-0.881127 -0.558419,-0.127017 -0.558419,-1.008144 0,-0.881125 0.558419,-0.127019 0.558419,-1.008143 0,-0.881126 -0.558419,-0.127018 -0.558419,-1.008142 0,-0.881128 0.558419,-0.127018 0.558419,-1.008145 0,-0.881125 -0.558419,-0.127017 -0.558419,-1.008142 0,-0.881127 0.558419,-0.12702 0.558419,-1.008144 0,-0.881127 -0.558419,-0.12702 -0.558419,-1.008145 0,-0.881125 0.558419,-0.127017 0.558419,-1.008142 0,-0.881125 -0.558419,-0.347301 -0.558419,-1.008144 0,-0.660844 0.279209,-0.50407 0.279209,-0.50407"
         style="fill:none;stroke:#00c000;stroke-width:0.5;stroke-linecap:butt;stroke-linejoin:miter;stroke-miterlimit:4;stroke-opacity:1;stroke-dasharray:none" />
      <path
         sodipodi:nodetypes="czzzzzzzzzzzzzzzzzzc"
         inkscape:connector-curvature="0"
         id="path3093-7"
         d="m 33.920555,39.274348 c 0,0 0.305449,0.09611 0.169774,-0.550657 -0.135675,-0.646765 -0.572601,-0.0097 -0.753501,-0.87202 -0.1809,-0.862356 0.520446,-0.238958 0.339546,-1.101313 -0.1809,-0.862356 -0.572601,-0.0097 -0.753501,-0.872023 -0.1809,-0.862354 0.520446,-0.238958 0.339546,-1.101315 -0.1809,-0.862355 -0.572601,-0.0097 -0.753501,-0.87202 -0.1809,-0.862357 0.520446,-0.238958 0.339546,-1.101316 -0.1809,-0.862354 -0.572601,-0.0097 -0.753501,-0.87202 -0.1809,-0.862354 0.520446,-0.238959 0.339546,-1.101314 -0.1809,-0.862357 -0.572601,-0.0097 -0.753501,-0.872022 -0.1809,-0.862355 0.520446,-0.23896 0.339546,-1.101314 -0.1809,-0.862356 -0.572601,-0.0097 -0.753501,-0.87202 -0.1809,-0.862358 0.520446,-0.238959 0.339546,-1.101316 -0.1809,-0.862355 -0.572601,-0.0097 -0.753501,-0.87202 -0.1809,-0.862357 0.520446,-0.238961 0.339546,-1.101315 -0.1809,-0.862357 -0.572601,-0.0097 -0.753501,-0.872023 -0.1809,-0.862355 0.520446,-0.238957 0.339546,-1.101313 -0.1809,-0.862355 -0.617826,-0.225256 -0.753501,-0.872021 -0.135675,-0.646767 0.169773,-0.550656 0.169773,-0.550656"
         style="fill:none;stroke:#00c000;stroke-width:0.5;stroke-linecap:butt;stroke-linejoin:miter;stroke-miterlimit:4;stroke-opacity:1;stroke-dasharray:none" />
      <path
         sodipodi:nodetypes="czzzzzzzzzzzzzzzzzzc"
         inkscape:connector-curvature="0"
         id="path3093-6"
         d="m 25.678814,39.496074 c 0,0 0.24509,0.206075 0.368284,-0.443184 0.123197,-0.649259 -0.524951,-0.228892 -0.360692,-1.094571 0.16426,-0.865679 0.572309,-0.02069 0.736569,-0.886368 0.164259,-0.86568 -0.524952,-0.228893 -0.360692,-1.094574 0.16426,-0.865678 0.572308,-0.02069 0.736569,-0.88637 0.164259,-0.865679 -0.524952,-0.228892 -0.360693,-1.094571 0.16426,-0.86568 0.572309,-0.02069 0.736569,-0.886371 0.164259,-0.865678 -0.524951,-0.228891 -0.360692,-1.09457 0.16426,-0.865678 0.572308,-0.02069 0.736569,-0.88637 0.16426,-0.865681 -0.524953,-0.228891 -0.360693,-1.094572 0.16426,-0.865679 0.572309,-0.02069 0.736569,-0.88637 0.164259,-0.865679 -0.524951,-0.228892 -0.360692,-1.09457 0.16426,-0.865682 0.572308,-0.02069 0.736569,-0.886371 0.164259,-0.865679 -0.524952,-0.228892 -0.360693,-1.094571 0.164261,-0.865681 0.572309,-0.02069 0.736569,-0.88637 0.16426,-0.865681 -0.524951,-0.228894 -0.360692,-1.094574 0.16426,-0.865678 0.572309,-0.02069 0.736569,-0.886368 0.164259,-0.865679 -0.483886,-0.445313 -0.360692,-1.094572 0.123196,-0.649259 0.368283,-0.443183 0.368283,-0.443183"
         style="fill:none;stroke:#00c000;stroke-width:0.5;stroke-linecap:butt;stroke-linejoin:miter;stroke-miterlimit:4;stroke-opacity:1;stroke-dasharray:none" />
      <path
         sodipodi:nodetypes="cc"
         inkscape:connector-curvature="0"
         id="path3908"
         d="m 27.628141,33.003543 1.327665,0"
         style="fill:none;stroke:#00c000;stroke-width:1px;stroke-linecap:butt;stroke-linejoin:miter;stroke-opacity:1" />
      <path
         sodipodi:nodetypes="cc"
         inkscape:connector-curvature="0"
         id="path3908-0"
         d="m 30.315632,33.02475 1.659121,0"
         style="fill:none;stroke:#00c000;stroke-width:1px;stroke-linecap:butt;stroke-linejoin:miter;stroke-opacity:1" />
    </g>
  </g>
</svg>
